<?xml version="1.0" standalone="no"?>
<!DOCTYPE svg PUBLIC "-//W3C//DTD SVG 20010904//EN"
 "http://www.w3.org/TR/2001/REC-SVG-20010904/DTD/svg10.dtd">
<svg version="1.0" xmlns="http://www.w3.org/2000/svg"
 width="964.000000pt" height="964.000000pt" viewBox="0 0 964.000000 964.000000"
 preserveAspectRatio="xMidYMid meet">
<metadata>
Created by potrace 1.14, written by Peter Selinger 2001-2017
</metadata>
<g transform="translate(0.000000,964.000000) scale(0.100000,-0.100000)"
fill="#000000" stroke="none">
<path d="M810 9474 c-17 -89 -8 -304 20 -454 62 -343 226 -842 371 -1131 187
-376 545 -896 883 -1284 99 -113 97 -115 -13 -15 -209 189 -479 452 -626 607
-412 434 -573 634 -737 915 -43 73 -78 129 -78 124 0 -20 64 -384 86 -491 213
-1014 631 -1815 1319 -2524 143 -148 146 -149 -115 43 -298 220 -569 446 -774
646 -159 155 -250 262 -345 408 -41 62 -75 111 -77 110 -6 -7 47 -281 71 -363
43 -148 122 -337 236 -565 274 -547 678 -1128 1055 -1517 60 -62 108 -113 107
-113 -2 0 -94 45 -204 100 -255 128 -454 238 -549 304 -41 29 -81 56 -89 61
-24 14 78 -164 195 -340 463 -698 1175 -1334 1901 -1697 57 -28 101 -53 100
-55 -2 -2 -188 1 -413 7 -225 5 -460 10 -522 10 l-113 0 53 -77 c80 -119 272
-306 402 -392 245 -163 523 -266 856 -317 161 -25 537 -25 704 0 105 15 244
41 333 62 25 6 22 1 -32 -56 -124 -129 -421 -378 -630 -529 -55 -40 -101 -76
-103 -81 -5 -14 173 -66 287 -85 150 -25 363 -17 484 19 90 27 450 107 455
101 2 -1 -11 -25 -27 -52 -78 -127 -132 -294 -146 -450 l-7 -82 114 36 c207
65 416 152 557 232 41 23 76 40 78 38 2 -2 -1 -17 -8 -33 -34 -90 -60 -218
-66 -322 l-6 -113 119 56 c229 108 439 235 592 358 45 37 84 67 86 67 2 0 6
-87 9 -193 9 -288 51 -447 118 -447 26 0 191 182 319 351 l57 76 27 -96 c15
-53 42 -127 61 -166 35 -73 91 -138 103 -119 4 6 44 55 89 110 44 55 113 144
151 197 l70 97 41 -84 c49 -101 123 -175 202 -201 27 -9 52 -15 54 -14 4 5 59
187 75 247 l11 43 59 -78 c65 -88 145 -166 163 -160 15 5 72 164 87 244 7 35
15 63 19 63 4 0 49 -26 101 -58 52 -32 116 -71 143 -86 l47 -28 -11 28 c-39
101 -69 187 -66 190 2 2 45 -24 96 -57 52 -33 96 -57 99 -54 3 3 6 50 6 105
l1 99 40 7 c30 5 53 20 95 63 103 102 155 252 148 421 -5 114 -29 177 -91 238
-76 75 -115 85 -332 93 -104 3 -203 11 -220 16 -123 42 -217 119 -269 224 -48
96 -60 161 -53 304 7 164 36 294 117 535 117 345 146 502 137 743 -6 163 -28
268 -81 382 -102 220 -208 321 -666 637 -588 404 -1014 677 -1260 806 -58 30
-134 71 -170 92 -126 73 -336 179 -475 240 -172 76 -365 153 -371 147 -3 -2 4
-25 15 -51 11 -25 17 -46 12 -46 -4 0 -41 23 -82 51 -220 151 -388 324 -474
487 -99 189 -280 333 -564 446 -158 64 -431 139 -447 123 -3 -2 29 -74 72
-158 93 -187 148 -313 131 -303 -24 15 -297 222 -497 378 -541 421 -990 809
-1189 1027 -229 251 -660 844 -1206 1659 -119 179 -218 326 -220 328 -1 2 -8
-27 -15 -64z m618 -1019 c417 -607 576 -819 736 -984 337 -345 1017 -912 1411
-1176 165 -110 377 -266 371 -273 -2 -2 -21 5 -43 16 -21 11 -91 36 -155 56
l-117 37 -223 178 c-250 198 -498 404 -633 524 -132 118 -145 128 -90 67 91
-99 239 -290 214 -275 -43 26 -449 396 -658 600 -85 82 -150 143 -145 135 4
-8 89 -114 187 -235 l178 -220 -128 130 c-164 167 -478 504 -578 620 -105 123
-117 132 -60 50 205 -295 590 -757 846 -1016 65 -65 110 -115 101 -110 -34 19
-280 220 -387 317 l-110 99 80 -94 c217 -256 465 -520 615 -656 65 -59 71 -67
45 -61 -51 12 -114 46 -196 107 -43 33 -79 57 -79 56 0 -5 502 -463 609 -556
51 -44 154 -125 227 -178 73 -54 134 -101 134 -104 0 -4 -29 -1 -64 5 -57 11
-78 23 -197 111 -467 342 -854 691 -1136 1022 -157 184 -457 607 -650 918
-300 482 -404 721 -522 1200 -39 160 -91 403 -91 426 0 7 73 -95 161 -227 89
-131 245 -360 347 -509z m-503 -860 c206 -252 573 -652 811 -885 144 -141 464
-429 707 -637 222 -191 447 -353 624 -449 46 -25 83 -47 83 -48 0 -1 -56 8
-124 19 l-125 22 -253 191 c-139 106 -324 246 -410 312 -87 66 -158 118 -158
116 0 -2 416 -386 574 -529 61 -55 -3 -10 -369 263 -203 152 -377 280 -385
285 -8 5 28 -38 80 -96 524 -574 515 -563 395 -449 -297 282 -665 654 -854
865 l-54 60 29 -50 c179 -319 541 -774 959 -1204 77 -80 134 -141 126 -136 -8
4 -123 85 -255 179 -477 339 -483 342 -170 80 506 -424 744 -626 744 -630 0
-2 -19 5 -42 16 -51 24 -43 18 84 -63 53 -34 146 -102 205 -150 198 -163 446
-313 625 -379 l63 -23 -70 -3 c-68 -3 -75 -1 -300 93 -251 104 -272 115 -518
282 -537 363 -992 764 -1207 1066 -318 446 -691 1175 -840 1642 -50 156 -99
389 -76 364 2 -2 47 -58 101 -124z m3113 -1158 c307 -141 523 -301 600 -444
41 -77 102 -160 178 -242 32 -35 49 -59 37 -53 -50 27 -173 134 -238 207 -172
193 -250 260 -390 340 -47 27 -41 20 75 -101 118 -121 257 -274 290 -319 8
-10 -68 50 -170 135 -191 159 -192 158 -31 -30 49 -58 88 -107 86 -108 -2 -2
-50 33 -107 79 -57 45 -110 87 -118 93 -13 10 0 -10 99 -149 l36 -50 -35 25
c-19 13 -59 42 -89 64 -51 37 -53 38 -33 10 12 -16 68 -83 126 -149 90 -104
101 -120 82 -124 -15 -2 -31 10 -60 45 -22 27 -84 92 -138 146 -54 53 -98 101
-98 108 0 50 -119 380 -164 454 -37 60 -66 116 -61 116 3 0 58 -24 123 -53z
m-693 -229 c185 -67 400 -159 503 -215 90 -49 229 -156 357 -277 l80 -75 -47
-1 c-45 0 -50 3 -208 135 -89 74 -164 135 -166 135 -2 0 14 -30 37 -66 22 -36
39 -67 37 -69 -2 -1 -88 54 -193 122 l-190 124 120 -116 c88 -86 107 -108 70
-82 -27 18 -117 81 -200 139 -82 57 -157 108 -165 113 -8 5 35 -38 95 -95 61
-58 148 -142 195 -188 l85 -83 -123 61 c-68 34 -122 57 -119 53 3 -5 62 -58
131 -118 119 -105 142 -130 97 -105 -12 6 -21 9 -21 6 0 -2 65 -41 145 -86
128 -72 149 -87 180 -133 19 -28 32 -53 30 -56 -10 -9 -217 101 -321 171 -216
144 -408 379 -563 687 l-43 84 29 -8 c15 -3 91 -29 168 -57z m-2005 -638 c428
-393 888 -746 1243 -954 54 -32 162 -89 240 -127 78 -38 138 -69 132 -69 -22
0 -272 84 -370 125 -59 25 -102 38 -95 31 9 -12 132 -111 235 -191 42 -32
-180 79 -312 157 -112 66 -359 231 -443 298 -46 36 -23 10 81 -92 80 -79 192
-181 250 -227 164 -131 160 -132 -31 -5 -150 99 -300 217 -475 373 -129 115
-129 115 -71 46 312 -372 708 -740 934 -867 55 -31 67 -43 30 -29 -121 47
-337 154 -455 226 -24 14 -43 24 -43 21 0 -7 325 -259 455 -353 265 -192 452
-305 618 -377 177 -76 545 -185 780 -231 48 -10 87 -21 87 -25 0 -5 -23 -23
-51 -41 -44 -28 -49 -34 -35 -44 23 -18 21 -21 -28 -35 -51 -14 -81 -9 -305
51 -273 73 -573 181 -746 267 -342 170 -849 635 -1245 1142 -155 199 -359 519
-543 851 -80 145 -227 433 -227 445 0 4 60 -51 133 -122 72 -71 188 -181 257
-244z m2916 -25 c340 -22 604 -61 901 -131 136 -32 248 -90 282 -147 15 -25
19 -38 10 -34 -157 68 -306 108 -492 132 -124 16 -367 21 -367 7 0 -4 5 -13
12 -20 10 -10 -349 109 -373 124 -5 3 -9 3 -9 0 0 -3 118 -85 262 -181 145
-96 258 -175 253 -175 -9 0 -167 59 -292 109 -29 11 -53 19 -53 18 0 -2 83
-57 184 -123 101 -65 183 -120 181 -122 -1 -1 -74 27 -161 64 -194 81 -210 87
-202 79 3 -4 57 -42 119 -86 62 -43 108 -79 103 -79 -6 0 -44 11 -84 25 -40
14 -76 25 -79 25 -3 0 31 -23 77 -51 46 -28 81 -53 80 -55 -2 -2 -28 3 -58 11
-30 8 -55 13 -57 11 -6 -5 24 -81 53 -137 16 -30 31 -58 33 -63 10 -24 -99 77
-157 144 -91 107 -130 171 -236 385 -52 105 -111 209 -130 232 -32 37 -42 53
-33 53 2 0 106 -7 233 -15z m-1021 -109 c217 -40 482 -83 624 -101 30 -4 90
-24 135 -45 l81 -38 -156 -1 c-147 -1 -166 1 -322 37 -92 22 -167 36 -167 32
0 -4 45 -49 100 -100 56 -51 99 -95 97 -97 -4 -3 -407 231 -447 260 -63 45 65
-62 263 -222 131 -105 236 -191 232 -191 -3 0 -76 38 -162 85 -86 47 -157 84
-158 82 -3 -2 146 -137 277 -251 l77 -67 123 -26 c68 -13 125 -27 128 -30 3
-3 -65 -2 -150 2 l-154 7 -111 101 c-275 252 -507 488 -575 586 l-24 34 25 -6
c13 -3 132 -26 264 -51z m2444 -115 c348 -175 580 -313 736 -441 95 -78 185
-135 350 -221 231 -120 692 -408 880 -549 50 -37 144 -123 211 -192 195 -201
285 -358 320 -560 31 -179 4 -319 -126 -658 -45 -118 -93 -256 -105 -306 -83
-326 -31 -689 136 -935 51 -77 152 -183 215 -229 l46 -33 -48 61 c-71 88 -131
187 -107 177 114 -49 299 -77 475 -73 105 3 119 1 145 -18 70 -52 97 -128 91
-260 -3 -78 -9 -101 -36 -157 -18 -37 -46 -76 -63 -88 -39 -28 -116 -30 -135
-4 -19 26 -18 45 15 180 16 66 27 122 25 124 -2 3 -18 -9 -35 -25 -43 -40 -89
-139 -89 -191 0 -24 -2 -43 -5 -43 -3 0 -24 14 -47 30 -23 17 -43 28 -46 26
-2 -3 9 -24 26 -48 55 -81 134 -269 118 -285 -7 -7 -123 85 -203 161 -35 32
-63 56 -63 52 0 -4 14 -61 30 -126 17 -65 30 -122 30 -125 0 -7 -132 85 -141
99 -4 5 -10 27 -13 49 -16 101 -121 252 -229 332 -33 24 -59 52 -65 70 -6 17
-56 140 -111 273 -56 134 -101 251 -101 260 -1 10 -16 -23 -34 -73 -18 -49
-47 -114 -65 -144 -47 -78 -124 -181 -137 -181 -13 0 -47 75 -64 142 -7 26
-10 93 -8 157 l3 110 60 61 59 60 18 -47 c21 -57 36 -74 30 -34 -6 41 15 382
34 540 8 73 13 136 9 139 -8 8 -62 -46 -98 -97 -16 -24 -38 -69 -48 -100 l-17
-56 -29 60 c-25 54 -28 71 -28 162 l0 102 76 148 c108 208 140 324 124 449
l-7 56 -70 -76 c-59 -64 -111 -106 -132 -106 -2 0 35 66 84 148 48 81 87 148
87 149 -1 1 -75 -35 -165 -79 -89 -45 -165 -79 -167 -76 -3 3 37 75 88 161
l94 155 -52 -18 c-77 -26 -179 -40 -303 -40 -103 0 -268 21 -299 38 -17 10 95
88 220 153 l89 46 -104 7 c-213 14 -394 54 -522 115 l-81 39 46 21 c62 28 210
67 344 89 122 21 126 18 -66 52 -234 41 -468 108 -574 163 -35 18 -44 26 -29
27 83 1 383 39 539 67 93 17 93 30 -1 32 -71 2 -282 41 -388 73 -122 35 -286
112 -370 172 -61 44 -176 157 -176 173 0 6 23 6 53 2 28 -4 104 -8 168 -8 108
-1 122 -3 180 -31 82 -38 161 -58 279 -71 108 -12 208 -9 175 5 -11 5 -58 25
-105 44 -305 128 -637 397 -921 747 -93 114 -120 155 -104 155 3 0 103 -49
224 -109z m-714 -5 c55 -14 132 -36 171 -49 91 -32 296 -118 291 -123 -2 -2
-70 19 -152 46 -82 27 -150 48 -152 47 -2 -2 47 -43 107 -91 61 -48 110 -89
110 -91 0 -4 -185 77 -233 102 -59 30 -33 4 65 -65 56 -40 99 -72 95 -72 -7 0
-201 86 -222 98 -5 3 26 -34 70 -82 l79 -88 -52 26 c-29 14 -52 24 -52 22 0
-3 38 -35 85 -72 47 -37 83 -69 80 -72 -2 -2 -24 -1 -49 2 -41 7 -59 21 -265
223 -122 118 -231 229 -243 246 l-22 30 95 -6 c52 -4 139 -18 194 -31z m-784
-157 l20 -29 -23 0 c-13 0 -41 5 -63 10 -22 5 -41 8 -42 6 -2 -1 28 -24 67
-51 39 -27 69 -50 67 -51 -2 -2 -36 7 -77 20 -150 48 -240 74 -240 71 0 -1 74
-47 165 -100 91 -54 164 -100 162 -102 -2 -2 -68 19 -146 46 -77 28 -141 49
-141 47 0 -15 302 -180 377 -208 51 -18 93 -36 93 -39 0 -12 -157 13 -228 37
-168 56 -295 153 -394 303 l-38 56 158 5 c86 3 181 6 209 7 48 1 55 -1 74 -28z
m649 -357 c74 -4 191 -5 260 -2 103 5 127 3 138 -9 6 -8 12 -18 12 -23 0 -4
-62 -8 -137 -8 -79 0 -132 -4 -123 -9 8 -4 67 -21 130 -36 145 -36 131 -43
-20 -11 -63 14 -116 23 -118 22 -1 -2 85 -39 193 -81 107 -43 193 -80 192 -82
-2 -1 -75 11 -162 27 -88 16 -160 28 -162 26 -1 -1 46 -22 105 -46 59 -23 112
-47 117 -52 6 -6 4 -7 -5 -4 -29 10 -353 77 -356 73 -2 -2 75 -36 172 -77 96
-41 171 -76 166 -78 -6 -2 -40 4 -77 13 -38 8 -70 14 -71 12 -2 -2 75 -37 172
-78 l177 -74 -69 -8 -68 -9 -131 65 c-156 79 -298 171 -376 247 -31 30 -70 65
-87 78 -28 20 -112 134 -112 152 0 4 24 1 53 -7 28 -8 113 -17 187 -21z m990
-28 c12 -13 -2 -15 -133 -12 -80 2 -143 0 -139 -3 4 -4 33 -14 66 -23 32 -10
56 -19 54 -21 -2 -2 -50 0 -108 5 -57 5 -106 8 -108 6 -2 -2 21 -15 50 -29
l53 -24 -45 -10 -45 -9 105 -53 c64 -33 125 -72 157 -102 28 -27 49 -49 45
-49 -15 0 -214 107 -290 156 -80 52 -172 134 -172 153 0 8 48 14 190 24 25 2
104 4 176 5 108 2 134 -1 144 -14z m-2470 -79 c30 -3 141 -17 245 -31 179 -24
191 -27 212 -52 13 -15 23 -30 23 -33 0 -4 -37 2 -81 13 -45 10 -83 17 -85 15
-2 -2 32 -30 76 -61 44 -32 80 -59 80 -61 0 -1 -66 22 -147 51 -81 30 -149 54
-152 53 -3 0 87 -47 202 -105 114 -57 207 -106 207 -108 0 -4 -83 18 -149 39
-31 10 -25 -1 15 -25 19 -12 33 -24 30 -27 -17 -18 -521 278 -566 332 -12 14
-10 16 11 11 13 -3 49 -7 79 -11z m1239 -48 c36 -24 75 -47 85 -51 38 -13 7
-16 -63 -6 -39 7 -76 10 -82 8 -6 -2 70 -48 170 -102 99 -53 181 -99 181 -100
0 -1 -102 17 -227 40 -125 24 -228 42 -230 40 -2 -2 76 -31 172 -66 96 -35
174 -64 172 -66 -2 -2 -122 30 -267 71 -145 41 -265 74 -266 72 -2 -2 103 -47
234 -101 130 -54 240 -101 245 -105 4 -4 -59 -1 -140 6 -81 7 -152 12 -157 10
-5 -2 73 -21 173 -42 99 -22 181 -42 181 -46 0 -3 -39 -7 -87 -8 -48 -1 -89
-3 -91 -5 -2 -2 31 -12 72 -22 42 -10 73 -20 70 -23 -3 -3 -46 -8 -96 -11
l-91 -5 48 -52 c26 -29 44 -53 41 -53 -21 0 -207 97 -269 139 -80 56 -211 180
-358 343 l-94 103 100 11 c55 7 127 21 160 32 44 14 78 18 130 15 39 -2 95 0
125 5 86 15 88 15 159 -31z m1325 -322 c0 -5 -54 -19 -120 -30 -65 -10 -112
-20 -104 -22 8 -1 69 -5 135 -9 l120 -7 -110 -27 c-109 -26 -110 -26 -65 -33
25 -4 80 -10 123 -13 43 -4 75 -9 73 -12 -3 -2 -52 -10 -108 -16 l-103 -12 60
-13 c33 -7 82 -17 109 -23 38 -8 46 -12 33 -20 -48 -26 -371 67 -446 129 l-24
20 79 31 c71 29 156 53 224 65 43 8 125 2 124 -8z m-497 -111 l38 -29 -105 -7
c-58 -5 -109 -9 -113 -11 -5 -1 67 -19 160 -40 l168 -37 -175 4 -175 4 215
-37 215 -38 -240 -8 -240 -8 260 -41 c295 -46 294 -48 -15 -62 -90 -4 -156
-10 -145 -14 11 -4 114 -13 228 -20 114 -7 204 -16 200 -20 -4 -4 -70 -20
-146 -36 -129 -27 -136 -29 -95 -36 24 -3 75 -7 113 -8 39 -1 90 -5 114 -8 41
-7 43 -8 26 -22 -58 -48 -493 32 -701 130 -132 61 -300 188 -278 209 15 15
394 140 470 156 105 22 174 15 221 -21z m-1277 -9 c14 -12 46 -37 72 -55 27
-18 46 -35 45 -37 -4 -3 -221 23 -272 33 -64 13 -12 -7 185 -71 185 -60 262
-89 186 -71 -92 22 -73 10 53 -34 143 -49 183 -67 126 -57 -16 3 -75 8 -130
11 l-100 6 119 -42 119 -41 -82 -30 -82 -29 -102 67 c-140 93 -465 324 -472
336 -4 5 9 9 27 10 18 0 62 8 98 17 87 23 176 18 210 -13z m-675 -29 l220 -1
67 -55 c37 -30 64 -56 60 -58 -4 -1 -39 7 -77 17 -38 11 -71 18 -73 17 -1 -2
54 -36 123 -77 68 -40 123 -74 121 -76 -2 -2 -99 21 -216 52 -117 30 -215 54
-216 52 -2 -1 73 -32 166 -67 93 -36 167 -66 165 -68 -3 -3 -479 135 -530 154
-11 4 -18 5 -15 2 3 -4 160 -74 350 -158 190 -84 347 -154 350 -157 3 -3 -60
-3 -140 0 -164 6 -163 5 73 -54 109 -27 163 -45 155 -51 -18 -12 40 -60 159
-134 51 -32 92 -59 90 -60 -1 -2 -53 8 -114 21 -443 94 -828 305 -1080 594
-115 132 -117 125 23 116 66 -5 218 -9 339 -9z m2653 -200 c-1 -2 -41 -29 -87
-60 -47 -31 -82 -56 -79 -56 3 0 49 20 102 45 53 24 96 43 96 41 0 -2 -43 -38
-95 -80 -52 -42 -95 -79 -95 -82 0 -3 5 -2 11 2 6 3 68 28 138 55 l126 48 -52
-49 c-28 -28 -50 -50 -49 -50 1 0 49 16 106 35 57 19 106 35 109 35 23 -2 -88
-45 -204 -79 -106 -32 -164 -43 -244 -48 l-104 -6 30 44 c42 61 131 146 199
191 46 30 61 35 76 27 11 -6 18 -12 16 -13z m-4278 -84 c265 -161 599 -301
805 -338 22 -4 88 -35 148 -70 119 -71 336 -181 410 -209 26 -10 46 -20 44
-22 -2 -2 -82 15 -177 37 -94 23 -174 39 -176 37 -2 -2 88 -42 201 -88 113
-46 202 -85 197 -87 -5 -1 -92 22 -193 52 -155 46 -247 77 -504 171 -11 4 111
-68 270 -160 160 -91 294 -170 299 -175 5 -5 -67 24 -160 65 -93 40 -278 120
-411 178 -134 58 -243 104 -243 102 0 -1 73 -50 163 -107 233 -151 541 -348
620 -398 37 -23 66 -44 64 -46 -2 -2 -55 19 -118 47 -184 82 -199 89 -199 83
0 -8 466 -314 596 -391 308 -184 360 -198 721 -198 165 0 258 -4 252 -9 -17
-18 -9 -24 59 -42 54 -15 102 -19 247 -19 99 0 212 4 250 8 l70 8 -90 -57
c-49 -31 -112 -72 -138 -92 l-49 -35 -155 7 c-275 12 -587 61 -760 120 -151
51 -591 257 -778 364 -290 166 -464 300 -725 562 -263 262 -450 475 -670 760
l-35 45 30 -20 c17 -11 77 -48 135 -83z m3085 -64 c14 -6 25 -14 25 -17 0 -3
-88 -35 -195 -70 -107 -36 -194 -65 -192 -67 1 -1 90 9 197 22 107 13 201 23
208 22 7 -2 -66 -25 -162 -52 -97 -27 -175 -51 -173 -52 2 -2 61 3 132 11 71
8 130 13 132 11 5 -4 -87 -21 -204 -37 -46 -7 -83 -15 -83 -19 0 -3 63 -12
140 -20 77 -7 138 -16 135 -20 -2 -3 -68 -12 -146 -20 -77 -7 -135 -16 -128
-20 8 -4 66 -15 129 -25 96 -14 134 -26 230 -70 63 -28 136 -60 163 -70 26
-10 46 -20 43 -22 -6 -6 -212 16 -305 33 -166 31 -388 103 -526 171 -64 32
-185 106 -185 113 0 3 28 13 63 23 34 9 197 55 362 101 165 47 303 85 307 85
4 1 19 -4 33 -11z m748 -185 c-90 -26 -161 -48 -160 -50 2 -2 104 10 227 27
235 32 301 35 160 7 -47 -10 -152 -33 -235 -52 -144 -34 -147 -35 -75 -30 41
3 131 7 200 10 l125 5 -284 -62 c-156 -34 -279 -64 -274 -65 6 -2 137 12 293
32 155 20 285 34 287 31 2 -2 -61 -26 -141 -52 -80 -27 -144 -50 -142 -52 2
-1 71 9 154 23 82 14 156 25 163 24 8 0 -31 -23 -86 -50 -76 -37 -92 -48 -65
-45 19 3 67 7 105 10 l70 5 -75 -19 c-252 -66 -550 -43 -792 58 -49 20 -86 42
-85 47 5 15 238 119 342 154 75 24 265 68 365 84 92 15 62 -1 -77 -40z m646
23 c8 -10 -2 -36 -45 -115 -31 -56 -54 -104 -51 -107 2 -3 35 28 72 68 68 72
76 75 27 9 -29 -39 -25 -37 72 32 60 42 73 48 102 42 19 -3 34 -10 34 -15 0
-21 -151 -125 -262 -180 -66 -33 -126 -60 -133 -60 -15 0 -7 20 88 223 55 115
71 133 96 103z m461 -131 c0 -3 -19 -35 -43 -72 -41 -65 -185 -307 -194 -328
-6 -13 50 46 100 105 l38 45 -38 -75 c-21 -41 -40 -79 -42 -85 -2 -5 31 24 73
65 42 41 76 72 76 68 0 -3 -7 -22 -16 -43 -17 -42 -19 -43 74 22 66 47 93 53
66 15 -20 -29 -238 -175 -318 -213 -72 -34 -74 -32 -56 69 16 96 63 208 121
293 67 97 108 139 136 139 13 0 23 -2 23 -5z m-2288 -163 c63 -24 69 -32 25
-32 -73 0 -34 -16 106 -44 78 -16 146 -32 151 -37 4 -4 -101 -5 -235 -3 -282
5 -283 -6 -3 -33 101 -10 184 -20 184 -24 0 -3 -57 -11 -127 -19 -71 -7 -134
-16 -141 -20 -17 -8 332 -22 368 -14 l25 5 -25 -18 c-14 -10 -49 -38 -78 -61
-51 -41 -57 -44 -98 -37 -95 14 -243 72 -402 158 l-94 50 54 29 c29 17 75 36
101 44 26 8 62 28 80 44 38 35 47 36 109 12z m1583 -62 c-7 -23 8 -26 51 -10
58 23 29 0 -85 -66 -66 -38 -119 -70 -117 -71 2 -2 36 11 77 28 173 74 279
118 279 115 0 -2 -54 -45 -120 -96 -66 -51 -120 -95 -120 -97 0 -2 19 7 43 21
126 73 307 174 307 171 0 -2 -76 -71 -170 -155 -93 -83 -170 -153 -170 -155 0
-2 71 42 158 99 86 57 159 102 160 100 2 -1 -22 -37 -53 -79 -31 -42 -55 -78
-53 -80 2 -1 41 19 88 46 47 27 86 45 88 40 2 -5 -2 -27 -8 -49 -10 -38 -14
-42 -94 -75 -169 -71 -321 -101 -511 -101 -128 0 -295 19 -295 34 0 4 14 13
32 21 70 29 189 117 288 214 89 87 194 165 223 165 5 0 5 -9 2 -20z m-776 -26
c17 -4 31 -10 31 -14 0 -4 -35 -22 -77 -41 -84 -37 -289 -151 -313 -174 -9
-10 15 -5 65 14 99 36 396 124 401 119 2 -2 -122 -55 -277 -117 -154 -63 -278
-115 -277 -116 2 -2 133 30 293 71 159 41 294 74 300 74 5 -1 -143 -57 -330
-125 -187 -68 -337 -124 -334 -125 4 0 134 29 290 65 155 36 284 64 285 62 2
-2 -105 -47 -237 -101 -132 -54 -238 -100 -237 -101 2 -1 87 12 190 29 103 18
184 29 180 25 -4 -3 -70 -29 -147 -57 -93 -34 -164 -53 -210 -57 -90 -9 -249
9 -320 36 l-56 21 44 51 c109 128 341 309 510 398 132 69 159 76 226 63z
m1598 -186 c-18 -70 -31 -125 -28 -123 2 3 31 49 63 103 32 53 58 93 58 87 0
-5 -9 -39 -20 -74 -11 -36 -18 -66 -16 -68 2 -2 20 30 39 72 38 80 51 96 36
43 -18 -65 -8 -60 52 25 93 134 104 114 23 -43 -62 -121 -147 -216 -253 -283
l-34 -21 7 109 c4 61 13 144 20 186 10 66 16 80 46 107 20 17 36 26 38 19 1
-7 -13 -69 -31 -139z m-2662 8 c44 -20 86 -36 93 -36 6 0 12 -4 12 -8 0 -4
-69 -17 -152 -27 -144 -18 -150 -20 -98 -26 30 -4 102 -7 160 -8 57 -1 100 -5
95 -9 -6 -5 -91 -21 -190 -37 -242 -38 -253 -43 -105 -45 69 -1 163 -5 210 -9
l85 -6 -275 -46 -275 -47 280 -1 c154 -1 273 -5 265 -10 -8 -4 -105 -28 -215
-52 l-200 -44 79 -6 c43 -4 160 -10 260 -14 100 -4 172 -11 161 -15 -11 -4
-72 -15 -135 -26 l-115 -19 85 -6 c47 -4 169 -10 273 -14 103 -4 187 -12 187
-16 0 -5 -4 -9 -9 -9 -5 0 -43 -23 -84 -50 -74 -50 -75 -50 -155 -50 -169 0
-419 61 -596 145 -107 51 -248 147 -333 228 -40 38 -73 73 -73 77 0 23 642
237 675 225 6 -2 46 -20 90 -39z m3100 -93 c-55 -135 -113 -347 -116 -428 -4
-105 2 -101 51 30 27 72 49 125 49 120 1 -6 -6 -62 -15 -124 -8 -62 -14 -115
-12 -117 3 -2 31 60 63 139 32 78 62 146 66 150 4 5 1 -20 -7 -55 -7 -34 -13
-67 -14 -73 0 -5 41 67 91 160 51 94 98 179 106 190 12 18 13 15 7 -25 -23
-156 -69 -263 -171 -399 -74 -99 -204 -234 -215 -223 -5 5 -16 46 -24 93 -22
115 -14 239 19 305 13 27 44 100 67 162 24 61 47 112 53 112 5 0 6 -8 2 -17z
m-67 -30 c-19 -69 -86 -213 -141 -306 -77 -127 -227 -311 -242 -296 -2 3 -12
34 -21 70 -12 47 -15 89 -11 159 7 129 27 189 80 239 23 23 45 41 48 41 4 0
-4 -34 -17 -76 -33 -107 -56 -227 -52 -271 3 -34 10 -21 72 130 38 92 70 166
72 164 2 -1 -8 -41 -21 -87 -14 -47 -25 -89 -25 -95 0 -5 27 49 61 120 33 72
64 134 68 138 5 5 4 -15 -1 -43 -17 -94 -3 -86 51 33 39 84 60 117 72 117 15
0 16 -5 7 -37z m-798 -39 c0 -3 -23 -44 -50 -91 -28 -47 -49 -87 -47 -89 2 -2
45 39 97 91 51 52 94 95 96 95 2 0 -74 -143 -137 -257 -16 -29 -27 -53 -25
-53 2 0 63 68 136 150 72 83 134 150 136 150 2 0 -28 -60 -66 -133 -39 -74
-70 -136 -70 -139 0 -3 38 34 85 81 l86 86 -25 -58 c-30 -68 -23 -67 24 2 19
28 38 51 43 51 4 0 7 -18 7 -40 0 -38 1 -40 25 -34 24 6 26 5 19 -22 -3 -16
-14 -35 -23 -42 -41 -33 -166 -94 -261 -127 -96 -33 -352 -105 -375 -105 -5 0
7 17 26 38 85 89 134 174 164 277 24 84 62 154 88 165 26 10 47 12 47 4z
m-620 -91 c0 -4 -48 -57 -107 -117 l-108 -108 108 72 c60 39 110 70 112 68 2
-2 -34 -36 -78 -77 -146 -133 -232 -215 -217 -206 8 5 108 71 223 147 114 76
207 137 207 135 0 -2 -124 -109 -275 -237 -151 -128 -275 -234 -275 -236 0 -2
143 91 318 207 354 235 349 239 54 -44 -68 -65 -113 -113 -101 -107 12 7 86
52 165 100 79 49 144 87 144 86 0 -2 -55 -52 -122 -112 -68 -59 -134 -118
-148 -132 -24 -24 -8 -13 208 137 56 39 105 71 108 71 3 0 -38 -51 -92 -112
-53 -62 -104 -122 -113 -133 -19 -23 -27 -30 104 77 l80 64 105 18 c58 10 152
33 209 52 57 19 106 34 109 34 3 0 -21 -18 -53 -41 -32 -22 -74 -53 -94 -69
-87 -69 -453 -192 -695 -235 -122 -21 -351 -36 -409 -27 l-48 7 56 90 c70 112
137 202 239 325 133 161 184 208 261 244 39 19 79 41 90 49 22 18 35 21 35 10z
m-245 -14 c-16 -5 -86 -23 -155 -39 -107 -25 -184 -39 -410 -76 -19 -3 -32 -3
-29 1 4 3 137 32 295 64 274 56 367 71 299 50z m-535 -184 c0 -2 -44 -34 -97
-71 -54 -37 -102 -71 -108 -76 -5 -5 68 18 164 51 96 34 176 60 177 58 2 -2
-57 -38 -131 -81 -74 -43 -135 -80 -135 -82 0 -4 13 1 173 65 43 17 81 31 84
31 4 0 -23 -23 -60 -52 -37 -28 -66 -52 -64 -54 2 -2 43 8 92 21 50 14 93 25
98 25 13 0 -44 -79 -62 -84 -95 -30 -620 -80 -638 -62 -14 14 87 96 256 207
146 97 169 109 208 109 23 0 43 -2 43 -5z m1429 -227 c-89 -103 -197 -247
-235 -313 -24 -42 0 -22 145 125 95 96 170 170 166 163 -3 -7 -76 -110 -162
-230 -152 -212 -155 -216 -97 -166 32 28 73 65 89 83 17 18 66 64 109 103 l79
72 -134 -200 c-155 -231 -151 -225 -146 -225 2 0 68 70 147 155 79 85 145 153
147 151 2 -2 -6 -28 -18 -57 -54 -137 -68 -179 -56 -172 7 4 63 49 126 100 62
51 117 93 121 93 4 0 10 -42 14 -92 l7 -93 -55 -51 c-76 -72 -142 -107 -281
-148 -172 -52 -445 -107 -445 -91 0 18 46 175 81 275 16 47 54 136 85 198 45
90 71 128 132 194 62 66 232 208 249 208 2 0 -28 -37 -68 -82z m495 -65 c-50
-117 -84 -259 -84 -354 0 -43 4 -80 9 -83 4 -3 23 48 41 114 19 66 35 118 36
117 2 -2 -8 -88 -22 -192 -13 -105 -23 -197 -22 -205 2 -8 25 64 52 160 43
155 76 253 61 180 -12 -57 -65 -414 -62 -417 3 -3 109 313 129 385 5 19 11 32
14 30 2 -3 -12 -78 -31 -168 -19 -90 -33 -165 -32 -167 2 -2 37 86 77 194 40
109 77 202 82 208 4 5 8 -20 8 -56 0 -36 3 -121 7 -189 l6 -123 51 146 c51
146 70 186 62 131 -7 -42 -15 -202 -10 -184 3 8 17 74 33 145 l28 130 28 -55
c15 -29 37 -67 48 -82 19 -26 22 -27 29 -11 3 10 7 38 8 63 1 25 5 56 9 70 7
21 10 16 20 -34 11 -48 10 -80 0 -173 l-13 -114 -73 -69 c-54 -52 -95 -80
-167 -114 -89 -43 -282 -165 -351 -223 l-30 -26 -13 134 c-12 126 -23 201 -72
474 -21 120 -28 365 -10 365 6 0 10 -10 10 -22 0 -49 14 -51 68 -9 27 22 63
56 78 76 15 19 28 34 30 32 2 -2 -12 -40 -32 -84z m-1861 -134 c-3 -11 -104
-100 -224 -197 -119 -97 -216 -178 -215 -179 1 -2 27 10 57 26 130 69 289 149
289 145 0 -1 -66 -48 -147 -104 -81 -55 -144 -100 -142 -100 3 0 65 20 139 45
73 25 135 43 137 41 2 -2 -69 -29 -157 -61 -88 -32 -159 -59 -158 -61 2 -1
118 31 258 72 140 40 259 73 263 71 4 -1 -98 -45 -227 -97 -130 -51 -234 -95
-233 -96 1 -2 167 51 367 116 200 65 366 118 368 116 5 -5 -76 -50 -153 -86
-229 -104 -510 -199 -722 -244 -109 -23 -334 -57 -340 -52 -2 1 21 32 51 67
90 110 295 283 486 411 103 68 292 186 302 187 3 1 4 -8 1 -20z m-1038 -116
l230 -38 -265 -6 c-490 -12 -464 -10 -395 -19 33 -5 143 -14 245 -22 226 -16
185 -25 -130 -28 -113 -1 -250 -5 -305 -9 l-100 -6 235 -23 c129 -13 246 -27
259 -31 22 -6 -393 -30 -549 -32 -40 0 -49 -3 -35 -9 11 -5 212 -21 448 -36
235 -16 427 -31 427 -34 0 -4 -84 -20 -187 -36 -173 -27 -182 -29 -132 -36 30
-3 97 -7 149 -8 52 -1 124 -5 160 -9 l65 -6 -140 -32 -140 -32 100 5 c55 2
129 7 164 11 l64 6 -43 -51 c-29 -36 -53 -53 -74 -58 -44 -8 -310 12 -426 32
-172 30 -370 109 -578 232 -117 70 -339 230 -377 271 l-19 22 64 -8 c111 -14
781 -7 900 10 148 20 132 21 385 -20z m1650 -74 c-50 -51 -83 -88 -75 -83 8 4
62 38 120 74 134 84 130 82 130 77 0 -2 -47 -41 -105 -87 -58 -46 -105 -85
-105 -87 0 -2 3 -2 8 0 4 3 67 41 140 86 72 44 132 77 132 73 0 -4 -31 -39
-70 -77 -38 -38 -68 -70 -66 -72 2 -2 47 17 101 42 54 25 102 45 108 45 6 0
-22 -26 -61 -57 -39 -32 -69 -59 -67 -61 2 -2 29 13 60 33 57 36 90 40 47 5
-77 -62 -532 -191 -532 -151 0 30 144 268 181 298 14 11 87 30 124 32 14 1 -7
-26 -70 -90z m926 -326 c-64 -96 -112 -175 -103 -169 5 3 35 39 67 80 56 72
83 94 52 44 -8 -12 -26 -45 -41 -73 l-28 -50 71 75 c73 77 81 76 50 -7 -5 -13
-7 -23 -5 -23 1 0 23 29 47 65 24 35 47 65 51 65 3 0 11 -23 17 -52 l11 -51
-56 -51 c-32 -28 -74 -61 -95 -73 -38 -22 -161 -112 -258 -190 -29 -24 -56
-42 -58 -39 -2 2 35 98 83 212 l86 209 67 42 c36 22 69 41 74 42 4 1 -10 -25
-32 -56z m-1018 25 c-63 -81 -171 -238 -152 -223 13 11 65 56 114 100 104 92
136 119 119 95 -10 -13 -179 -251 -207 -290 -6 -8 38 32 99 90 201 194 208
196 59 20 -82 -96 -155 -184 -164 -195 -15 -19 -14 -19 9 1 14 11 84 69 155
129 182 152 170 143 160 125 -5 -8 -60 -86 -122 -172 -62 -87 -110 -158 -107
-158 3 0 78 57 167 127 207 161 205 160 122 72 -134 -142 -134 -145 5 -43 74
55 160 117 190 138 50 34 47 30 -34 -48 -50 -47 -128 -113 -175 -147 -77 -54
-389 -216 -625 -323 l-79 -36 6 49 c13 114 132 344 296 573 82 115 92 123 150
127 17 1 21 -2 14 -11z m-663 -284 l-215 -216 85 58 c47 32 131 91 188 131 56
40 105 73 108 73 2 0 -64 -68 -148 -151 l-153 -150 110 73 c60 40 116 77 125
82 33 19 -19 -25 -195 -164 -220 -175 -215 -170 -130 -127 39 19 93 45 120 57
28 12 76 36 108 51 31 16 57 28 57 25 0 -2 -65 -52 -145 -110 -80 -59 -145
-110 -145 -112 0 -5 94 44 315 165 60 33 111 58 113 56 9 -9 -31 -65 -80 -111
-152 -143 -310 -204 -525 -204 -94 1 -235 18 -248 31 -2 3 42 38 98 79 220
161 464 386 609 561 73 90 107 116 148 118 8 1 -82 -96 -200 -215z m2400 144
c0 -7 -24 -31 -52 -52 -53 -39 -51 -30 6 32 32 34 46 40 46 20z m-558 -135
c-64 -111 -99 -184 -122 -261 -12 -40 -20 -75 -18 -77 2 -2 35 52 73 120 38
69 70 123 72 121 2 -2 -13 -63 -32 -136 -20 -73 -34 -134 -32 -136 2 -2 36 37
76 86 40 49 77 92 82 95 5 3 -14 -34 -42 -82 -28 -48 -55 -97 -61 -108 -6 -11
49 39 122 110 108 106 125 120 93 75 -106 -149 -104 -149 27 0 132 150 131
149 89 66 -21 -41 -41 -96 -45 -121 -6 -41 -15 -53 -87 -121 -45 -41 -104 -92
-132 -114 -45 -35 -187 -120 -200 -120 -3 0 -5 21 -5 48 l-1 47 -24 -27 c-13
-16 -27 -28 -31 -28 -4 0 -4 69 -1 153 5 170 22 242 76 326 33 51 148 167 157
158 3 -3 -12 -36 -34 -74z m558 42 c0 -8 -25 -52 -56 -97 -31 -46 -71 -112
-89 -148 -32 -64 -69 -170 -61 -177 2 -2 23 31 46 74 33 62 96 159 77 118 -12
-27 -127 -398 -124 -402 2 -2 35 62 72 142 38 79 70 143 72 141 2 -1 -10 -54
-27 -116 -16 -63 -28 -115 -27 -117 2 -1 27 42 57 97 54 97 82 133 40 50 -34
-67 -18 -56 40 26 51 75 53 76 65 53 15 -27 10 -44 -40 -133 -31 -56 -232
-317 -254 -331 -20 -12 -36 113 -36 286 l0 176 48 96 c44 90 172 277 190 277
4 0 7 -7 7 -15z m-714 -100 c-14 -20 -40 -72 -58 -116 -32 -78 -34 -81 -103
-123 -38 -24 -173 -108 -300 -186 -325 -202 -329 -205 -320 -183 35 83 75 312
75 432 l0 59 68 43 c37 24 73 48 81 53 8 5 -5 -14 -29 -42 -24 -29 -41 -54
-39 -56 2 -3 48 31 102 75 53 43 97 77 97 74 0 -3 -48 -72 -107 -153 -58 -81
-98 -141 -87 -133 10 8 70 64 132 125 61 61 112 108 112 104 0 -4 -59 -89
-131 -190 -225 -313 -215 -295 -108 -193 51 50 96 92 99 95 3 3 37 34 74 70
75 71 75 71 1 -45 -65 -102 -67 -105 -62 -105 2 0 34 38 72 84 38 47 72 81 75
76 5 -8 150 97 306 222 38 31 70 54 72 53 2 -1 -8 -19 -22 -40z m1145 -163
c22 -107 -25 -256 -138 -445 l-35 -58 -30 28 c-44 42 -65 90 -82 190 -18 103
-13 167 18 215 l21 33 6 -135 c5 -130 19 -201 31 -169 3 8 14 82 24 164 l19
150 4 -130 3 -130 38 145 38 145 2 -75 2 -75 14 85 c27 167 24 157 39 136 8
-10 19 -43 26 -74z m-2206 -219 l-86 -128 100 105 c56 57 101 101 101 98 0 -4
-40 -67 -88 -140 -112 -169 -165 -249 -176 -268 -15 -27 15 7 145 160 67 80
120 138 117 129 -3 -8 -35 -60 -70 -115 -35 -54 -68 -106 -72 -114 -5 -8 44
37 108 100 l118 115 -61 -98 c-34 -54 -61 -101 -61 -105 0 -3 19 12 43 34 23
22 52 48 64 58 l23 19 -16 -54 c-34 -114 -29 -109 -190 -191 -153 -78 -323
-152 -332 -143 -13 13 91 232 176 369 119 193 220 319 240 300 2 -1 -35 -60
-83 -131z m2424 -376 c7 -32 15 -57 17 -55 2 3 -1 49 -6 104 -12 121 -13 180
-2 170 4 -4 22 -62 39 -129 l33 -122 -4 93 c-3 50 -3 92 -1 92 2 0 8 -24 15
-52 6 -29 16 -71 23 -93 12 -39 12 -38 17 55 l5 95 27 -55 c27 -54 27 -58 18
-150 -15 -140 -42 -260 -60 -260 -17 0 -122 156 -168 249 l-45 94 17 113 c9
63 20 122 23 132 4 9 14 -36 24 -103 9 -66 22 -146 28 -178z m-1815 96 c-81
-104 -156 -198 -167 -210 -45 -50 -5 -19 64 50 41 40 136 134 213 208 l138
134 -66 -92 c-36 -51 -66 -95 -66 -98 0 -3 46 33 103 79 l102 85 7 -42 7 -42
-102 -100 c-119 -117 -279 -240 -407 -313 -50 -29 -95 -52 -100 -52 -16 0 74
294 127 417 14 32 36 54 90 93 40 27 75 50 78 50 3 0 -27 -48 -66 -107 -70
-106 -71 -107 -28 -67 105 97 213 194 216 194 2 0 -63 -84 -143 -187z m896 68
c0 -110 -145 -378 -300 -556 -34 -38 -65 -71 -69 -73 -4 -1 -11 26 -15 60 -14
134 -35 357 -40 443 l-6 90 41 23 c22 13 43 21 46 19 2 -3 -2 -50 -11 -105 -9
-55 -16 -103 -15 -108 0 -5 13 27 29 71 34 96 36 85 10 -65 -11 -63 -20 -122
-19 -130 0 -8 40 64 90 160 49 96 87 166 85 155 -10 -43 -78 -303 -92 -350
-24 -83 0 -39 96 180 51 116 96 214 100 218 4 5 1 -19 -7 -53 -7 -34 -12 -64
-11 -66 2 -2 19 28 38 65 19 38 38 67 43 64 4 -2 7 -21 7 -42z m437 -225 c-31
-61 -78 -141 -106 -178 -47 -62 -131 -138 -153 -138 -23 0 -126 295 -116 333
2 7 26 34 54 60 l52 47 -19 -77 c-10 -43 -18 -82 -18 -88 0 -5 29 46 64 115
35 69 64 122 64 118 1 -4 -12 -71 -29 -150 -16 -78 -28 -143 -27 -145 2 -1 32
67 67 152 35 85 65 155 67 155 2 0 1 -44 -2 -97 l-6 -98 36 90 c20 50 41 101
46 115 10 23 12 21 45 -40 l36 -64 -55 -110z m323 99 l17 70 4 -100 c3 -87 0
-116 -28 -229 -18 -71 -36 -133 -42 -139 -19 -19 -151 203 -192 322 -23 67
-25 88 -5 72 11 -9 20 -4 44 24 17 19 34 35 37 35 3 0 5 -26 6 -57 0 -32 4
-80 7 -108 l7 -50 19 100 c10 55 22 106 26 114 4 8 11 -51 15 -130 9 -160 12
-156 41 66 l19 150 4 -105 4 -105 17 70z"/>
<path d="M2450 5127 c0 -3 39 -30 88 -60 115 -71 112 -69 112 -63 0 2 -34 25
-75 50 -42 25 -87 53 -100 62 -14 9 -25 14 -25 11z"/>
<path d="M5730 5177 c0 -10 67 -88 138 -161 144 -147 310 -263 527 -367 123
-59 268 -118 250 -101 -10 9 -877 610 -902 626 -7 4 -13 5 -13 3z"/>
<path d="M6926 4510 c190 -139 466 -356 539 -424 l70 -65 -120 71 c-125 74
-422 224 -430 216 -2 -2 47 -41 111 -87 312 -225 626 -504 725 -645 28 -39 58
-99 70 -135 43 -135 34 -384 -21 -592 -10 -40 -17 -75 -16 -77 4 -3 96 243
133 353 l23 70 -5 -55 c-15 -141 -88 -437 -140 -560 -55 -130 -70 -355 -40
-600 17 -138 57 -318 87 -395 11 -27 24 -61 29 -74 25 -65 15 8 -33 230 -49
228 -52 253 -52 379 1 194 30 334 127 601 71 194 90 304 84 474 -6 166 -25
244 -97 391 -66 136 -149 246 -294 389 -137 136 -297 263 -501 400 -133 89
-340 215 -352 215 -4 0 43 -36 103 -80z"/>
<path d="M6005 4464 c36 -28 208 -111 285 -137 94 -32 190 -54 300 -67 143
-17 165 -11 54 15 -135 31 -306 82 -499 149 -88 31 -151 49 -140 40z"/>
<path d="M6380 4025 c0 -13 97 -58 166 -76 85 -22 288 -30 393 -14 81 11 45
22 -104 29 -160 9 -335 31 -401 51 -56 17 -54 17 -54 10z"/>
<path d="M6604 3712 c12 -20 94 -63 148 -78 79 -22 266 -29 402 -15 134 14
155 19 134 32 -7 5 -87 6 -178 2 -219 -8 -370 11 -494 62 -14 6 -17 5 -12 -3z"/>
<path d="M7478 3465 c-13 -14 -216 -45 -333 -51 -100 -6 -123 -9 -100 -16 42
-13 204 -1 305 21 91 21 175 49 149 50 -9 1 -18 -1 -21 -4z"/>
<path d="M7656 2610 c-85 -96 -156 -236 -156 -312 l0 -32 29 45 c15 25 49 62
74 83 27 22 53 55 65 84 22 50 48 169 40 178 -3 2 -26 -18 -52 -46z"/>
<path d="M8390 1298 c36 -17 74 -23 188 -29 218 -13 238 -31 236 -214 l-1
-110 19 42 c10 24 23 67 29 96 15 71 -7 149 -51 192 l-31 30 -187 1 c-103 0
-200 3 -217 7 -22 5 -18 2 15 -15z"/>
<path d="M7980 1298 c0 -23 32 -173 37 -178 5 -4 38 -28 75 -53 82 -58 132
-114 170 -192 l29 -60 -7 50 c-3 27 -16 70 -29 95 -26 51 -109 135 -171 173
-35 22 -46 37 -69 96 -24 59 -35 82 -35 69z"/>
</g>
</svg>
